<svg width="48" height="47" fill="none" xmlns="http://www.w3.org/2000/svg"><path d="M23.5 27.612c1.817 0 3.29-1.402 3.29-3.133 0-1.73-1.473-3.133-3.29-3.133s-3.29 1.402-3.29 3.133c0 1.73 1.473 3.133 3.29 3.133z" fill="url(#paint0_linear_2751_1340)"/><path d="M20.416 14.688l-1.882 1.958h-3.259c-1.13 0-2.056.881-2.056 1.958v11.75c0 1.077.925 1.959 2.056 1.959h16.45c1.13 0 2.056-.882 2.056-1.959v-11.75c0-1.077-.925-1.958-2.056-1.958h-3.26l-1.88-1.959h-6.17zM23.5 29.374c-2.838 0-5.14-2.193-5.14-4.896 0-2.702 2.302-4.896 5.14-4.896 2.838 0 5.14 2.194 5.14 4.896 0 2.703-2.302 4.896-5.14 4.896z" fill="url(#paint1_linear_2751_1340)"/><path d="M41.125 27.125h-1.25v3.75h-3.75v1.25h3.75v3.75h1.25v-3.75h3.75v-1.25h-3.75v-3.75z" fill="url(#paint2_linear_2751_1340)"/><defs><linearGradient id="paint0_linear_2751_1340" x1="23.5" y1="14.688" x2="23.5" y2="32.313" gradientUnits="userSpaceOnUse"><stop stop-color="#748AE9"/><stop offset="1" stop-color="#B3D3ED"/></linearGradient><linearGradient id="paint1_linear_2751_1340" x1="23.5" y1="14.688" x2="23.5" y2="32.313" gradientUnits="userSpaceOnUse"><stop stop-color="#748AE9"/><stop offset="1" stop-color="#B3D3ED"/></linearGradient><linearGradient id="paint2_linear_2751_1340" x1="40.5" y1="27.125" x2="40.5" y2="35.875" gradientUnits="userSpaceOnUse"><stop stop-color="#748AE9"/><stop offset="1" stop-color="#B3D3ED"/></linearGradient></defs></svg>