<svg width="11" height="13" fill="none" xmlns="http://www.w3.org/2000/svg"><path d="M.464 4.5h.483l.503 7.092A1.522 1.522 0 002.968 13h5.066c.796 0 1.462-.616 1.518-1.408l.5-7.091h.484A.471.471 0 0011 4.038V2.97c0-.835-.69-1.507-1.533-1.507H7.795v-.215A1.25 1.25 0 006.547-.002H4.445A1.25 1.25 0 003.2 1.249v.215H1.533C.691 1.466 0 2.136 0 2.974V4.04c0 .249.212.46.464.46zm8.183 7.029a.61.61 0 01-.61.565H2.965a.608.608 0 01-.61-.565l-.498-7.028h7.287l-.498 7.028zM4.11 1.252c0-.193.146-.346.34-.346h2.101c.193 0 .34.153.34.346v.214H4.11v-.214zM.908 2.974c0-.339.286-.602.625-.602h7.939c.34 0 .625.263.625.602v.623H.908v-.623z" fill="#FF2B6A"/></svg>