<svg viewBox="0 0 32 32" xmlns="http://www.w3.org/2000/svg"><defs><style>.cls-1{fill:none}</style></defs><g data-name="Layer 2" id="Layer_2"><path d="M22.7 28H9.3a6.25 6.25 0 01-5.47-3.15 6.15 6.15 0 010-6.22l6.73-11.51a6.3 6.3 0 0110.88 0l6.71 11.51a6.15 6.15 0 010 6.22A6.25 6.25 0 0122.7 28zM16 6a4.24 4.24 0 00-3.71 2.12L5.58 19.64a4.15 4.15 0 000 4.21A4.23 4.23 0 009.3 26h13.4a4.23 4.23 0 003.73-2.15 4.15 4.15 0 000-4.21L19.71 8.12A4.24 4.24 0 0016 6z"/><path class="cls-1" d="M16 12a.54.54 0 00-.44.22.52.52 0 00-.1.48l.54 2.18.54-2.18a.52.52 0 00-.1-.48A.54.54 0 0016 12z"/><path d="M18 11a2.56 2.56 0 00-4 0 2.5 2.5 0 00-.46 2.19L15 19.24a1 1 0 001.94 0l1.51-6.06A2.5 2.5 0 0018 11zm-1.46 1.7L16 14.88l-.54-2.18a.52.52 0 01.1-.48.55.55 0 01.88 0 .52.52 0 01.1.48z"/><circle cx="16" cy="22.5" r="1.5"/></g><path class="cls-1" d="M0 0h32v32H0z" id="frame"/></svg>