<svg width="101" height="86" fill="none" xmlns="http://www.w3.org/2000/svg"><path d="M46.262 4.657l-1.647-2.011 2.01-1.648c.146-.12.17-.339.05-.46-.122-.145-.34-.17-.461-.049l-2.011 1.648L42.555.126c-.12-.145-.339-.17-.46-.048-.145.12-.17.339-.048.46l1.647 2.01-2.011 1.648c-.145.122-.17.34-.048.46.12.146.339.17.46.05l2.01-1.648 1.648 2.01c.121.146.34.17.46.05.146-.098.17-.316.05-.461z" fill="#FF2A6A" fill-opacity=".2"/><path d="M91.533 42.392l-2.746-3.352 3.352-2.745c.242-.202.283-.566.08-.768-.201-.242-.565-.282-.766-.08L88.1 38.192l-2.746-3.351c-.202-.242-.565-.283-.767-.08-.242.201-.283.564-.081.766l2.746 3.352-3.352 2.746c-.242.202-.282.565-.08.767.201.242.565.283.767.08l3.351-2.745 2.746 3.352c.202.242.566.282.767.08.243-.161.283-.525.081-.767z" fill="#F0F0F0"/><path d="M87.874 61.857l-1.465-1.787 1.788-1.465c.129-.107.15-.301.043-.409-.108-.129-.302-.15-.41-.043l-1.787 1.465-1.464-1.788c-.108-.13-.302-.15-.41-.043-.129.108-.15.302-.043.41l1.465 1.787-1.788 1.464c-.129.108-.15.302-.043.41.108.129.302.15.41.043l1.787-1.465 1.464 1.788c.108.129.302.15.41.043.129-.087.15-.28.043-.41zM4.182 69.938L2.718 68.15l1.787-1.464c.13-.108.151-.302.043-.41-.107-.128-.301-.15-.409-.042l-1.787 1.464-1.465-1.787c-.107-.13-.301-.151-.409-.043-.13.107-.15.301-.043.409L1.9 68.064.112 69.53c-.13.108-.15.301-.043.409.108.13.301.15.41.043l1.787-1.464 1.464 1.787c.108.13.302.15.41.043.129-.086.15-.28.042-.409z" fill="#FBBAD0"/><path d="M73.063 17.573l-2.746-3.351 3.352-2.746c.242-.202.283-.566.08-.767-.201-.243-.564-.283-.766-.081l-3.352 2.746-2.746-3.352c-.202-.242-.565-.283-.767-.08-.242.201-.283.565-.08.767l2.745 3.351-3.352 2.746c-.242.202-.282.565-.08.767.202.243.565.283.767.081l3.352-2.746 2.745 3.352c.202.242.566.282.768.08.242-.161.282-.524.08-.767zM17.654 49.895l-2.746-3.351 3.352-2.746c.242-.202.282-.565.08-.767-.201-.242-.565-.283-.767-.081l-3.351 2.746-2.746-3.352c-.202-.242-.566-.282-.767-.08-.243.201-.283.565-.081.767l2.746 3.351-3.352 2.746c-.242.202-.283.566-.08.767.201.243.565.283.767.081l3.351-2.746 2.746 3.352c.202.242.565.283.767.08.243-.16.283-.524.081-.767z" fill="#F0F0F0"/><path d="M17.712 25.718l-2.55-3.114 3.113-2.551c.225-.188.262-.525.075-.713-.188-.225-.526-.262-.713-.075l-3.114 2.514-2.55-3.114a.535.535 0 00-.75-.075.535.535 0 00-.076.75l2.551 3.114-3.114 2.55c-.225.188-.262.526-.075.713.188.226.526.263.713.076l3.114-2.551 2.55 3.113c.188.225.526.263.713.075.263-.15.3-.487.113-.712z" fill="#FF2A6A" fill-opacity=".3"/><path d="M51.457 30.053l-1.648-2.011 2.011-1.648c.146-.12.17-.339.049-.46-.121-.146-.34-.17-.46-.049l-2.011 1.648-1.648-2.011c-.121-.145-.34-.17-.46-.048-.146.12-.17.339-.049.46l1.648 2.01-2.011 1.648c-.146.122-.17.34-.049.46.121.146.34.17.46.05l2.012-1.648 1.647 2.01c.121.146.34.17.46.049.146-.097.17-.315.049-.46z" fill="#FF2A6A" fill-opacity=".2"/></svg>