<svg width="47" height="46" fill="none" xmlns="http://www.w3.org/2000/svg"><path d="M23.603 43.195c11.928 0 21.597-9.67 21.597-21.597C45.2 9.67 35.53 0 23.603 0 11.675 0 2.005 9.67 2.005 21.598c0 11.928 9.67 21.597 21.598 21.597z" fill="#FF2A6A"/><path d="M22.302 31.356a1.245 1.245 0 011.156-.764c.175 0 .338.031.489.097a1.248 1.248 0 01.764 1.156c0 .174-.031.337-.097.489a1.245 1.245 0 01-1.156.764A1.21 1.21 0 0122.97 33a1.245 1.245 0 01-.764-1.156c0-.17.031-.334.097-.489zm2.983-19.679c0-.713-.136-1.248-.407-1.605-.272-.357-.745-.535-1.416-.535-.671 0-1.144.178-1.416.535-.271.357-.407.892-.407 1.605v6.43l.943 9.58v-.023c.042.318.15.535.325.655.175.117.361.175.555.175a.978.978 0 00.547-.17c.17-.113.28-.327.322-.637l.958-9.58v-6.43h-.004z" fill="#fff"/></svg>