<svg width="27" height="38" fill="none" xmlns="http://www.w3.org/2000/svg"><g clip-path="url(#clip0_2203_6898)"><path d="M26.765 10.669a1.733 1.733 0 00-.074-.174c0-.007-.007-.007-.007-.014-.015-.022-.015-.058-.037-.08a3.041 3.041 0 00-.595-.818L17.272.926a3.081 3.081 0 00-.925-.63c-.007-.006-.015-.014-.022-.014-.015-.007-.03-.014-.044-.014A3.05 3.05 0 0014.995 0H3.218C1.44 0 0 1.419 0 3.17v31.667C0 36.581 1.44 38 3.218 38h20.571c1.771 0 3.218-1.419 3.218-3.17V11.827a3.053 3.053 0 00-.242-1.158zm-1.962-.536h-6.157c-1.057 0-1.924-.854-1.924-1.896V2.164l8.081 7.97zM13.496 27.867c-3.188 0-5.79-2.563-5.79-5.704 0-3.141 2.602-5.704 5.79-5.704 3.189 0 5.782 2.563 5.782 5.704 0 3.141-2.593 5.704-5.782 5.704z" fill="url(#paint0_linear_2203_6898)"/><path d="M15.612 22.351l-1.47 1.448V19a.643.643 0 00-.646-.637.638.638 0 00-.646.637v4.799l-1.47-1.448a.654.654 0 00-.91 0 .631.631 0 000 .898l2.57 2.533a.617.617 0 00.207.13c.029.015.058.03.088.03a.401.401 0 00.161.028.4.4 0 00.162-.029c.03 0 .059-.014.088-.029a.662.662 0 00.206-.13l2.571-2.533a.631.631 0 000-.898.654.654 0 00-.91 0z" fill="url(#paint1_linear_2203_6898)"/></g><defs><linearGradient id="paint0_linear_2203_6898" x1="13.504" y1="0" x2="13.504" y2="38" gradientUnits="userSpaceOnUse"><stop stop-color="#7D93EB"/><stop offset="1" stop-color="#B0D0ED"/></linearGradient><linearGradient id="paint1_linear_2203_6898" x1="13.496" y1="18.363" x2="13.496" y2="25.97" gradientUnits="userSpaceOnUse"><stop stop-color="#7D93EB"/><stop offset="1" stop-color="#B0D0ED"/></linearGradient><clipPath id="clip0_2203_6898"><path fill="#fff" d="M0 0h27v38H0z"/></clipPath></defs></svg>