<svg width="50" height="50" fill="none" xmlns="http://www.w3.org/2000/svg"><path d="M10.92 6.754a4.73 4.73 0 002.54.32c2.095-1.439 7.048-4.284 13.334-3.837 9.968.736 19.396 9.527 20.317 20.78.794 9.654-4.794 19.213-14.032 22.953-10.444 4.252-21.142-1.087-26.158-7.033-3.556-4.252-5.46-9.686-5.492-15.249 0-.927-1.429-.927-1.429 0 .095 10.454 6.571 19.948 16.35 23.625 9.84 3.708 21.332.543 27.967-7.64.127-.16.35-.416.572-.736.254-.32 5.047-6.873 5.11-15.249.033-8.088-4.412-16.591-11.777-21.13-12.92-7.961-29.206-.353-29.206 1.598 0 .511 1.11 1.278 1.905 1.598z" fill="#fff"/><path d="M1.016 20.5a.89.89 0 01.889.895.89.89 0 01-.89.896.89.89 0 01-.888-.896c0-.511.38-.895.889-.895zM37.047 18.167c-4.095-2.27-8.222-4.572-12.317-6.842-1.936 1.151-2.444 1.47-4.38 2.654v13.906c1.491.863 2.983 1.726 4.507 2.59v-5.531a966.556 966.556 0 017.714 4.54c1.27-.864 2.572-1.727 3.842-2.59l-11.588-6.777v-3.23l12.19 7.098c.032-1.95.032-3.868.032-5.818z" fill="#fff"/><path d="M12.92 18.167c0 6.042 0 7.512.032 13.554 3.968 2.27 7.905 4.54 11.873 6.777V33.64c-2.476-1.406-4.92-2.813-7.397-4.188V15.577a568.748 568.748 0 01-4.508 2.59z" fill="#fff"/></svg>