<svg width="77" height="77" fill="none" xmlns="http://www.w3.org/2000/svg"><path d="M16.714 10.337a7.238 7.238 0 003.887.489c3.206-2.202 10.786-6.556 20.406-5.871 15.256 1.125 29.686 14.58 31.095 31.802 1.215 14.776-7.336 29.405-21.475 35.13-15.985 6.507-32.358-1.664-40.035-10.764-5.442-6.508-8.357-14.825-8.406-23.338 0-1.42-2.186-1.42-2.186 0 .146 15.999 10.057 30.53 25.022 36.157 15.062 5.675 32.65.831 42.805-11.694.194-.245.534-.636.874-1.125.389-.49 7.726-10.52 7.823-23.338.048-12.379-6.754-25.393-18.026-32.34-19.775-12.184-44.7-.54-44.7 2.445 0 .783 1.701 1.957 2.916 2.447z" fill="url(#paint0_linear_2617_10789)"/><path d="M1.555 31.375c.729 0 1.36.587 1.36 1.37 0 .734-.583 1.37-1.36 1.37-.729 0-1.36-.587-1.36-1.37 0-.783.582-1.37 1.36-1.37z" fill="url(#paint1_linear_2617_10789)"/><path d="M56.7 27.804c-6.267-3.474-12.583-6.997-18.851-10.47-2.964 1.76-3.741 2.25-6.705 4.06v21.283c2.284 1.321 4.567 2.642 6.9 3.963v-8.464c3.935 2.3 7.87 4.6 11.806 6.948 1.943-1.321 3.935-2.642 5.879-3.963L37.995 30.788v-4.942l18.657 10.862c.048-2.984.048-5.92.048-8.904z" fill="url(#paint2_linear_2617_10789)"/><path d="M19.775 27.804c0 9.247 0 11.497.048 20.745 6.073 3.473 12.098 6.947 18.172 10.372v-7.437c-3.79-2.153-7.531-4.305-11.321-6.41V23.842a871.694 871.694 0 01-6.9 3.963z" fill="url(#paint3_linear_2617_10789)"/><defs><linearGradient id="paint0_linear_2617_10789" x1="38.262" y1="0" x2="38.262" y2="76.297" gradientUnits="userSpaceOnUse"><stop stop-color="#748AE9"/><stop offset="1" stop-color="#B3D3ED"/></linearGradient><linearGradient id="paint1_linear_2617_10789" x1="1.555" y1="31.375" x2="1.555" y2="34.115" gradientUnits="userSpaceOnUse"><stop stop-color="#748AE9"/><stop offset="1" stop-color="#B3D3ED"/></linearGradient><linearGradient id="paint2_linear_2617_10789" x1="43.922" y1="17.333" x2="43.922" y2="46.64" gradientUnits="userSpaceOnUse"><stop stop-color="#748AE9"/><stop offset="1" stop-color="#B3D3ED"/></linearGradient><linearGradient id="paint3_linear_2617_10789" x1="28.885" y1="23.841" x2="28.885" y2="58.921" gradientUnits="userSpaceOnUse"><stop stop-color="#748AE9"/><stop offset="1" stop-color="#B3D3ED"/></linearGradient></defs></svg>