<svg width="16" height="16" fill="none" xmlns="http://www.w3.org/2000/svg"><path d="M7.999 0c-.574 0-1.123.202-1.53.564a1.82 1.82 0 00-.634 1.36v.666A5.9 5.9 0 003.26 4.354 4.936 4.936 0 002.12 7.06l-.385 4.446c-.03.312-.235.586-.548.727l-.056.023c-.552.248-.95.701-1.084 1.238a1.662 1.662 0 00.407 1.528c.39.427.973.678 1.594.678h11.906c.617 0 1.204-.248 1.593-.678.39-.43.536-.99.407-1.528-.132-.537-.53-.994-1.084-1.238l-.05-.023c-.314-.14-.524-.415-.55-.727l-.385-4.446a4.936 4.936 0 00-1.14-2.705 5.875 5.875 0 00-2.574-1.764v-.662c0-.51-.227-1.002-.634-1.36A2.317 2.317 0 007.999 0z" fill="#fff"/></svg>