<svg width="98" height="78" fill="none" xmlns="http://www.w3.org/2000/svg"><g clip-path="url(#clip0_2617_11218)"><path d="M49.295 77.095c11.976 0 21.684-9.754 21.684-21.785s-9.708-21.785-21.684-21.785c-11.975 0-21.684 9.754-21.684 21.785s9.709 21.785 21.684 21.785z" fill="url(#paint0_linear_2617_11218)"/><path d="M59.972 46.08c.248.25-3.807 5.655-9.021 12.223a114.484 114.484 0 00-3.228 3.908l-.414.5-.496-.5c-4.138-4.24-6.952-7.4-6.704-7.65.166-.166 3.31 2.661 7.614 6.736l-.91.083a675.133 675.133 0 013.145-3.908c5.214-6.486 9.766-11.558 10.014-11.391z" fill="#fff"/><path d="M79.005 46.766c-.676-2.377-3.717-2.122-3.717-2.122l.084 1.613c1.775-.34 2.873 1.782 2.873 1.782l.76-1.273z" fill="#B1D1ED"/><path d="M14.967 51.689c-.676-2.377-3.717-2.122-3.717-2.122l.085 1.612c1.774-.339 2.872 1.783 2.872 1.783l.76-1.273zM50.281 19.436c3.464 1.104 5.66-2.97 5.66-2.97l-2.112-1.189c-1.013 2.462-4.562 2.207-4.562 2.207l1.014 1.952z" fill="#E0E0E0"/><path d="M30.766 23.765c-1.606.17-1.86 2.207-1.86 2.207l1.1.17c0-1.189 1.52-1.698 1.52-1.698l-.76-.679z" fill="#B1D1ED"/><path d="M98.014 38.788c.253-1.613-1.69-2.292-1.69-2.292l-.422 1.019c1.183.34 1.267 1.867 1.267 1.867l.845-.594z" fill="#E0E0E0"/><path d="M40.312 2.292C40.566.679 38.622 0 38.622 0L38.2 1.018c1.183.34 1.267 1.868 1.267 1.868l.845-.594zM.014 28.603c-.254 2.546 3.041 3.14 3.041 3.14l.592-1.697c-2.028-.17-2.281-2.546-2.281-2.546L.014 28.603zM75.034 19.352c1.606.084 2.197-1.868 2.197-1.868l-1.014-.34c-.169 1.189-1.774 1.444-1.774 1.444l.591.764z" fill="#B1D1ED"/><path d="M83.99 26.057c0 .085-.592.17-1.352.17-.76 0-1.352-.085-1.352-.17s.592-.17 1.352-.17c.676 0 1.352.085 1.352.17zM85.426 22.407c.084 0 .169.594.169 1.358 0 .764-.085 1.358-.17 1.358-.084 0-.168-.594-.168-1.358 0-.764.084-1.358.169-1.358zM86.947 25.972c0-.085.591-.17 1.351-.17s1.352.085 1.352.17-.591.17-1.352.17c-.76 0-1.351-.085-1.351-.17zM85.51 29.706c-.084 0-.169-.594-.169-1.358 0-.764.085-1.358.17-1.358.084 0 .168.594.168 1.358-.084.68-.084 1.358-.169 1.358zM87.707 28.094c-.084.084-.338-.17-.591-.51-.254-.34-.423-.594-.338-.679.084-.085.338.17.591.51.169.34.338.594.338.679zM87.538 23.935c.084.085-.169.34-.422.594-.254.255-.507.424-.592.424-.084-.085.17-.34.423-.594.253-.34.507-.51.591-.424zM84.412 24.953c-.084.085-.338-.085-.591-.254-.254-.255-.423-.425-.423-.51.085-.085.338.085.592.255.338.255.507.424.422.51zM84.328 26.82c.084.085-.085.34-.338.595-.254.254-.507.424-.592.424-.084-.085.085-.34.338-.594.254-.34.507-.51.592-.425z" fill="#E0E0E0"/><path d="M10.405 18.503c0 .084-.591.17-1.352.17-.76 0-1.351-.085-1.351-.17s.591-.17 1.351-.17c.676 0 1.352.085 1.352.17zM11.757 14.768c.084 0 .169.594.169 1.358 0 .764-.085 1.358-.17 1.358-.084 0-.168-.594-.168-1.358l.169-1.358zM13.362 18.418c0-.085.591-.17 1.352-.17.76 0 1.352.085 1.352.17s-.592.17-1.352.17c-.76-.085-1.352-.085-1.352-.17zM11.926 22.067c-.085 0-.17-.594-.17-1.358 0-.763.085-1.358.17-1.358.084 0 .169.595.169 1.358a48.98 48.98 0 01-.17 1.358zM14.038 20.54c-.085.085-.338-.17-.591-.51-.254-.34-.423-.594-.338-.679.084-.084.338.17.591.51.254.34.422.594.338.679zM13.954 16.296c.084.085-.17.34-.423.594-.253.255-.507.424-.591.424-.085-.084.169-.34.422-.594.254-.254.507-.424.591-.424zM10.828 17.4c-.085.084-.338-.085-.592-.255-.253-.255-.422-.425-.422-.51.084-.084.338.085.591.255.338.255.507.424.423.51zM10.743 19.267c.085.084-.084.339-.338.594-.253.254-.507.424-.591.424-.085-.085.084-.34.338-.594.253-.34.507-.51.591-.424z" fill="#768CEA"/></g><defs><linearGradient id="paint0_linear_2617_11218" x1="49.295" y1="33.526" x2="49.295" y2="77.095" gradientUnits="userSpaceOnUse"><stop stop-color="#748AE9"/><stop offset="1" stop-color="#B3D3ED"/></linearGradient><clipPath id="clip0_2617_11218"><path fill="#fff" d="M0 0h98v78H0z"/></clipPath></defs></svg>